<svg width="64" height="64" viewBox="0 0 64 64" fill="none" xmlns="http://www.w3.org/2000/svg">
  <defs>
    <linearGradient id="toasty" x1="50%" y1="100%" x2="50%" y2="0%">
      <stop offset="0%" stop-color="#A43B2E"/>
      <stop offset="35%" stop-color="#D9813C"/>
      <stop offset="70%" stop-color="#E8B647"/>
      <stop offset="100%" stop-color="#F8D97A"/>
    </linearGradient>
  </defs>
  <rect width="64" height="64" rx="14" fill="#2C5E4A"/>
  <g transform="translate(8 8)">
    <path d="M12 42 C 8 34, 9 25, 14 18 C 17 22, 18 28, 17 35 C 16 39, 14 41, 12 42 Z" fill="url(#toasty)"/>
    <path d="M36 42 C 40 33, 38 24, 33 16 C 31 21, 30 28, 31 34 C 32 38, 34 41, 36 42 Z" fill="url(#toasty)"/>
    <path d="M24 44 C 18 35, 18 22, 23 8 C 25 11, 28 20, 29 28 C 30 35, 28 40, 24 44 Z" fill="url(#toasty)"/>
  </g>
</svg>
